<?xml version="1.0" encoding="utf-8"?>
<!-- Generator: Adobe Illustrator 15.0.0, SVG Export Plug-In . SVG Version: 6.00 Build 0)  -->
<!DOCTYPE svg PUBLIC "-//W3C//DTD SVG 1.1//EN" "http://www.w3.org/Graphics/SVG/1.1/DTD/svg11.dtd">
<svg version="1.1" id="Layer_1" xmlns="http://www.w3.org/2000/svg" xmlns:xlink="http://www.w3.org/1999/xlink" x="0px" y="0px"
	 width="500px" height="500px" viewBox="0 0 500 500" enable-background="new 0 0 500 500" xml:space="preserve">
<circle fill="#FF00FF" cx="894" cy="250" r="83.333"/>
<circle fill="#FFFF00" cx="1060.667" cy="250" r="83.333"/>
<circle fill="#00FFFF" cx="727.333" cy="250" r="83.333"/>
<g>
	<polygon fill="#FFFFFF" points="337.95,152 272,152 272,290 338.087,290 	"/>
	<path fill="#FFFFFF" d="M272,387.529c0,7.953-1.102,15.402-3.516,22.339c-2.422,6.942-5.758,12.907-10.123,17.896
		c-4.368,4.992-9.644,8.928-15.879,11.813c-6.24,2.886-13.087,4.327-20.572,4.327c-9.356,0-17.303-1.247-23.854-3.743
		c-6.549-2.493-11.85-6.316-15.904-11.463c-3.12-4.21-5.458-9.344-7.016-15.426C173.577,407.191,172.8,400,172.8,392h-65.966
		c0.153,18,3.04,32.97,8.654,46.069c5.615,13.1,13.487,23.935,23.627,32.509c9.978,8.736,21.988,15.282,36.023,19.646
		c14.036,4.364,29.629,6.549,46.785,6.549c16.218,0,31.382-2.654,45.499-7.955c14.111-5.3,26.393-12.786,36.843-22.457
		c10.446-9.667,18.673-21.169,24.68-34.504c6.001-13.333,9.082-28.347,9.239-44.568L338.14,342H272V387.529z"/>
	<polygon fill="#FFFFFF" points="173.335,290 338,42.06 338,3 94,3 94,57 258.171,57 94,302.394 94,342 272,342 272,290 	"/>
	<polygon fill="#FFFFFF" points="402,290 338.087,290 338.14,342 402,342 	"/>
</g>
<text transform="matrix(1 0 0 1 706.9072 463.5674)" font-family="'RobotoMono-Bold'" font-size="386.8176">J</text>
<text transform="matrix(1 0 0 1 643.7422 309.4727)" font-family="'RobotoMono-Bold'" font-size="386.8176">Z</text>
<rect x="941" y="153" width="286" height="52"/>
</svg>
